<svg width="28" height="27" viewBox="0 0 28 27" fill="none" xmlns="http://www.w3.org/2000/svg">
<path fill-rule="evenodd" clip-rule="evenodd" d="M1.83709 0.347943L1.70182 0.333796C1.20958 0.315802 0.767533 0.663907 0.681195 1.16275L0.667048 1.29801C0.649054 1.79026 0.997159 2.23231 1.496 2.31864L3.50801 2.66663L4.72738 17.1943L4.75262 17.4126C4.99795 19.0692 6.42281 20.3146 8.11988 20.3146H22.6692L22.8883 20.3076C24.4834 20.2058 25.806 18.9995 26.0388 17.3971L27.3042 8.65251L27.3261 8.45165C27.4425 6.85288 26.176 5.46529 24.5452 5.46529H5.74935L5.43637 1.72965L5.41279 1.58184C5.32153 1.19742 5.00902 0.896931 4.61042 0.827943L1.83709 0.347943ZM7.96529 18.3062C7.30493 18.2339 6.77682 17.7036 6.72042 17.0275L5.91735 7.46529H24.5452L24.6627 7.47394C25.0838 7.53652 25.3879 7.93022 25.3248 8.36616L24.0595 17.1101L24.0278 17.2664C23.8673 17.8778 23.3134 18.3146 22.6692 18.3146H8.11988L7.96529 18.3062ZM5.87775 24.447C5.87775 23.3322 6.78131 22.427 7.89641 22.427C9.01136 22.427 9.91641 23.3321 9.91641 24.447C9.91641 25.5621 9.01121 26.4657 7.89641 26.4657C6.78146 26.4657 5.87775 25.562 5.87775 24.447ZM20.8796 24.447C20.8796 23.3321 21.7847 22.427 22.8996 22.427C24.0146 22.427 24.9196 23.3321 24.9196 24.447C24.9196 25.5621 24.0144 26.4657 22.8996 26.4657C21.7848 26.4657 20.8796 25.5621 20.8796 24.447Z" fill="#4174CB"/>
</svg>
