<svg width="20" height="19" viewBox="0 0 20 19" fill="none" xmlns="http://www.w3.org/2000/svg">
<path fill-rule="evenodd" clip-rule="evenodd" d="M1.63799 0.301749L1.545 0.292023C1.20658 0.279652 0.902672 0.518974 0.843314 0.86193L0.833588 0.954923C0.821217 1.29334 1.06054 1.59725 1.40349 1.65661L2.78675 1.89584L3.62507 11.8836L3.64242 12.0337C3.81108 13.1726 4.79068 14.0288 5.95741 14.0288H15.9601L16.1107 14.024C17.2074 13.954 18.1166 13.1247 18.2767 12.023L19.1467 6.01114L19.1617 5.87305C19.2417 4.7739 18.371 3.81993 17.2498 3.81993H4.32767L4.1125 1.25167L4.09628 1.15006C4.03354 0.885762 3.81869 0.679178 3.54466 0.631749L1.63799 0.301749ZM5.85113 12.6481C5.39713 12.5983 5.03406 12.2338 4.99528 11.7689L4.44317 5.19493H17.2498L17.3306 5.20087C17.6201 5.2439 17.8292 5.51456 17.7858 5.81427L16.9159 11.8257L16.8941 11.9332C16.7838 12.3535 16.4029 12.6538 15.9601 12.6538H5.95741L5.85113 12.6481ZM4.41594 16.8699C4.41594 16.1034 5.03714 15.4811 5.80377 15.4811C6.5703 15.4811 7.19253 16.1033 7.19253 16.8699C7.19253 17.6365 6.5702 18.2577 5.80377 18.2577C5.03725 18.2577 4.41594 17.6364 4.41594 16.8699ZM14.7297 16.8699C14.7297 16.1033 15.3519 15.4811 16.1185 15.4811C16.885 15.4811 17.5072 16.1033 17.5072 16.8699C17.5072 17.6365 16.8849 18.2577 16.1185 18.2577C15.352 18.2577 14.7297 17.6365 14.7297 16.8699Z" fill="white"/>
</svg>
