<svg width="27" height="26" viewBox="0 0 27 26" fill="none" xmlns="http://www.w3.org/2000/svg">
<path fill-rule="evenodd" clip-rule="evenodd" d="M6.1441 0.753762C1.24865 2.32987 -0.934888 7.67429 0.706386 12.7727C1.53925 15.1735 2.89375 17.3313 4.67334 19.1017C7.11465 21.4727 9.79667 23.5592 12.6798 25.3322L13.0072 25.5282C13.3208 25.7159 13.713 25.7126 14.0234 25.5197L14.3291 25.3297C17.2082 23.5592 19.8902 21.4727 22.3232 19.1099C24.1111 17.3313 25.4656 15.1735 26.2915 12.7936C27.9388 7.67739 25.7462 2.33044 20.8493 0.75384L20.495 0.648349C18.2498 0.0308237 15.8639 0.335109 13.8526 1.47384L13.4951 1.68577L13.1439 1.47502C11.0225 0.271294 8.48716 8.25226e-05 6.1441 0.753762ZM12.6662 3.4724L12.9285 3.66055C13.2743 3.90819 13.7408 3.90327 14.0813 3.64838C15.8546 2.32079 18.1496 1.93447 20.2521 2.60896C24.0462 3.8305 25.7729 8.04132 24.4419 12.176C23.7199 14.2557 22.5249 16.1595 20.9555 17.7207L20.2515 18.3895C18.3546 20.1523 16.3034 21.748 14.1255 23.1542L13.5016 23.5465L13.692 23.6665C10.9406 21.9745 8.37162 19.9759 6.04105 17.7125C4.48003 16.1595 3.28498 14.2557 2.55605 12.1552C1.23073 8.03738 2.94991 3.82953 6.74201 2.60865C8.74437 1.96456 10.9274 2.2839 12.6662 3.4724Z" fill="#4174CB"/>
</svg>
