<svg width="61" height="14" viewBox="0 0 61 14" fill="none" xmlns="http://www.w3.org/2000/svg">
<path d="M12.33 0.399999L15.39 13H13.392L11.304 4H11.268L8.442 11.074H7.038L4.212 4H4.176L2.088 13H0.09L3.15 0.399999H4.68L7.722 8.14H7.758L10.8 0.399999H12.33ZM17.3223 5.674C18.1863 4.834 19.2723 4.414 20.5803 4.414C21.8883 4.414 22.9743 4.834 23.8383 5.674C24.7023 6.514 25.1343 7.57 25.1343 8.842C25.1343 10.114 24.7023 11.17 23.8383 12.01C22.9743 12.85 21.8883 13.27 20.5803 13.27C19.2723 13.27 18.1863 12.85 17.3223 12.01C16.4583 11.17 16.0263 10.114 16.0263 8.842C16.0263 7.57 16.4583 6.514 17.3223 5.674ZM22.5063 6.88C22.0143 6.388 21.3723 6.142 20.5803 6.142C19.7883 6.142 19.1403 6.388 18.6363 6.88C18.1443 7.372 17.8983 8.026 17.8983 8.842C17.8983 9.658 18.1443 10.312 18.6363 10.804C19.1403 11.296 19.7883 11.542 20.5803 11.542C21.3723 11.542 22.0143 11.296 22.5063 10.804C23.0103 10.312 23.2623 9.658 23.2623 8.842C23.2623 8.026 23.0103 7.372 22.5063 6.88ZM30.7936 13.27C29.4496 13.27 28.3516 12.862 27.4996 12.046C26.6476 11.23 26.2216 10.162 26.2216 8.842C26.2216 7.522 26.6476 6.454 27.4996 5.638C28.3516 4.822 29.4496 4.414 30.7936 4.414C31.8376 4.414 32.7856 4.696 33.6376 5.26L32.8096 6.754C32.1376 6.334 31.4476 6.124 30.7396 6.124C29.9476 6.124 29.3056 6.382 28.8136 6.898C28.3336 7.402 28.0936 8.05 28.0936 8.842C28.0936 9.634 28.3336 10.288 28.8136 10.804C29.3056 11.308 29.9476 11.56 30.7396 11.56C31.4476 11.56 32.1376 11.35 32.8096 10.93L33.6376 12.424C32.7856 12.988 31.8376 13.27 30.7936 13.27ZM42.5101 13H40.1881L36.8401 8.914V13H35.0761V4.684H36.8401V8.23L39.8101 4.684H42.1321L38.6401 8.464L42.5101 13ZM48.9161 8.662C50.1161 8.818 50.7161 9.484 50.7161 10.66C50.7161 11.428 50.4221 12.01 49.8341 12.406C49.2581 12.802 48.5561 13 47.7281 13H43.4081V4.684H47.8721C48.6401 4.684 49.2641 4.87 49.7441 5.242C50.2241 5.602 50.4641 6.112 50.4641 6.772C50.4641 7.792 49.9481 8.416 48.9161 8.644V8.662ZM47.4761 6.124H45.1721V7.996H47.4941C48.2501 7.996 48.6281 7.672 48.6281 7.024C48.6281 6.748 48.5261 6.532 48.3221 6.376C48.1301 6.208 47.8481 6.124 47.4761 6.124ZM47.5661 11.56C47.9741 11.56 48.2981 11.47 48.5381 11.29C48.7781 11.11 48.8981 10.846 48.8981 10.498C48.8981 9.766 48.5081 9.4 47.7281 9.4H45.1721V11.56H47.5661ZM55.9357 13.27C54.7957 13.27 53.8357 12.868 53.0557 12.064C52.2757 11.26 51.8857 10.186 51.8857 8.842C51.8857 7.498 52.2757 6.424 53.0557 5.62C53.8357 4.816 54.7957 4.414 55.9357 4.414C57.2317 4.414 58.1677 4.912 58.7437 5.908H58.7797V4.684H60.5437V13H58.7797V11.776H58.7437C58.1677 12.772 57.2317 13.27 55.9357 13.27ZM54.4597 10.804C54.9277 11.296 55.5457 11.542 56.3137 11.542C57.0817 11.542 57.6997 11.296 58.1677 10.804C58.6357 10.3 58.8697 9.646 58.8697 8.842C58.8697 8.038 58.6357 7.39 58.1677 6.898C57.6997 6.394 57.0817 6.142 56.3137 6.142C55.5457 6.142 54.9277 6.394 54.4597 6.898C53.9917 7.39 53.7577 8.038 53.7577 8.842C53.7577 9.646 53.9917 10.3 54.4597 10.804Z" fill="#333333"/>
</svg>
