<svg width="22" height="28" viewBox="0 0 22 28" fill="none" xmlns="http://www.w3.org/2000/svg">
<path fill-rule="evenodd" clip-rule="evenodd" d="M11.0058 0.666626C7.09373 0.666626 3.9224 3.85148 3.9224 7.78019C3.9224 11.7089 7.09373 14.8938 11.0058 14.8938C14.9178 14.8938 18.0891 11.7089 18.0891 7.78019C18.0891 3.85148 14.9178 0.666626 11.0058 0.666626ZM11.0058 2.59685C13.8563 2.59685 16.1671 4.91751 16.1671 7.78019C16.1671 10.6429 13.8563 12.9635 11.0058 12.9635C8.15524 12.9635 5.84443 10.6429 5.84443 7.78019C5.84443 4.91751 8.15524 2.59685 11.0058 2.59685ZM8.10677 17.7611C7.06981 17.8331 6.02165 17.9812 4.98777 18.2027C2.99227 18.6138 1.39584 19.435 0.716359 20.7998C0.460077 21.3335 0.331227 21.905 0.333401 22.4836C0.332632 23.058 0.460439 23.6302 0.707531 24.1537C1.35996 25.5027 2.77045 26.2662 4.67503 26.6894L5.01621 26.7606C6.02202 26.9875 7.0705 27.1403 8.12599 27.212C8.21589 27.2384 8.43014 27.2629 8.66399 27.2748L8.85633 27.282C8.95523 27.2843 9.06748 27.2849 9.23472 27.2849C10.7518 27.3683 12.3246 27.344 13.8901 27.2108C14.7243 27.1537 15.5642 27.0446 16.397 26.8847L17.0201 26.7554C19.0768 26.3496 20.6168 25.5781 21.2915 24.1552C21.7917 23.0988 21.7917 21.8729 21.2917 20.8169C20.6187 19.3976 19.0983 18.6325 17.0045 18.2012C16.1831 18.0258 15.3483 17.896 14.5076 17.8131L13.893 17.7611C11.9679 17.5913 10.0318 17.5913 8.10677 17.7611ZM13.7248 19.684L13.7417 19.6853C14.7066 19.7532 15.6655 19.8886 16.6116 20.0906C18.1668 20.411 19.2223 20.9422 19.5562 21.6463C19.8076 22.1773 19.8076 22.7943 19.5559 23.3258C19.244 23.9838 18.296 24.4921 16.926 24.8028L16.626 24.8663C15.6614 25.0816 14.7056 25.2203 13.7434 25.2862C12.2506 25.4132 10.7666 25.4361 9.2864 25.3561L8.76159 25.3471C8.6159 25.3396 8.49312 25.3256 8.37934 25.3027C7.47834 25.2347 6.66759 25.1271 5.8804 24.9711L5.41038 24.8716C3.85032 24.5658 2.78557 24.0324 2.44036 23.3186C2.31956 23.0626 2.25504 22.7737 2.25542 22.4812C2.25434 22.1904 2.31802 21.908 2.44162 21.6504C2.77728 20.9765 3.90563 20.396 5.38145 20.092C6.33435 19.8878 7.29286 19.7525 8.25729 19.6854C10.0881 19.524 11.9117 19.524 13.7248 19.684Z" fill="#4174CB"/>
</svg>
