<svg width="38" height="39" viewBox="0 0 38 39" fill="none" xmlns="http://www.w3.org/2000/svg">
<path d="M36.7401 30.0242L31.3201 20.6642C32.4292 18.6272 33.007 16.3435 33.0001 14.0242C33.0001 10.3111 31.5251 6.75018 28.8996 4.12467C26.2741 1.49917 22.7131 0.0241699 19.0001 0.0241699C15.2871 0.0241699 11.7261 1.49917 9.10059 4.12467C6.47508 6.75018 5.00008 10.3111 5.00008 14.0242C4.9932 16.3435 5.57099 18.6272 6.68009 20.6642L1.26009 30.0242C1.08421 30.3288 0.99178 30.6744 0.992127 31.0262C0.992475 31.3779 1.08558 31.7233 1.26206 32.0276C1.43854 32.3319 1.69215 32.5842 1.9973 32.7592C2.30244 32.9342 2.64834 33.0256 3.00008 33.0242H8.74008L11.6601 37.9442C11.7585 38.1072 11.8797 38.2554 12.0201 38.3842C12.3908 38.7415 12.8851 38.9421 13.4001 38.9442H13.6801C13.982 38.9028 14.2705 38.7931 14.5236 38.6232C14.7766 38.4534 14.9875 38.228 15.1401 37.9642L19.0001 31.3242L22.8601 38.0242C23.0149 38.2842 23.2268 38.5058 23.4797 38.672C23.7326 38.8383 24.0199 38.9451 24.3201 38.9842H24.6001C25.1219 38.9873 25.6244 38.7863 26.0001 38.4242C26.1346 38.3027 26.2493 38.161 26.3401 38.0042L29.2601 33.0842H35.0001C35.3525 33.0856 35.699 32.9938 36.0046 32.8182C36.3101 32.6426 36.5639 32.3894 36.7401 32.0842C36.927 31.7731 37.0257 31.4171 37.0257 31.0542C37.0257 30.6913 36.927 30.3352 36.7401 30.0242V30.0242ZM13.3801 33.0842L11.6001 30.1042C11.4248 29.8085 11.1763 29.563 10.8785 29.3914C10.5808 29.2197 10.2438 29.1277 9.90008 29.1242H6.44008L9.30009 24.1642C11.2695 26.0619 13.7517 27.3413 16.4401 27.8442L13.3801 33.0842ZM19.0001 24.0242C17.0223 24.0242 15.0889 23.4377 13.4444 22.3389C11.7999 21.2401 10.5182 19.6783 9.76129 17.851C9.00441 16.0237 8.80638 14.0131 9.19223 12.0733C9.57808 10.1335 10.5305 8.35163 11.929 6.9531C13.3275 5.55458 15.1094 4.60217 17.0492 4.21632C18.989 3.83046 20.9997 4.0285 22.8269 4.78537C24.6542 5.54225 26.216 6.82398 27.3148 8.46847C28.4136 10.113 29.0001 12.0464 29.0001 14.0242C29.0001 16.6763 27.9465 19.2199 26.0712 21.0952C24.1958 22.9706 21.6523 24.0242 19.0001 24.0242V24.0242ZM28.1001 29.1242C27.7564 29.1277 27.4194 29.2197 27.1216 29.3914C26.8239 29.563 26.5754 29.8085 26.4001 30.1042L24.6201 33.0842L21.5801 27.7842C24.259 27.271 26.732 25.9928 28.7001 24.1042L31.5601 29.0642L28.1001 29.1242Z" fill="white"/>
</svg>
