<svg width="16" height="16" viewBox="0 0 16 16" fill="none" xmlns="http://www.w3.org/2000/svg">
<g clip-path="url(#clip0_2026_6625)">
<path d="M8.00015 0.39138L10.472 5.40046L16 6.20392L11.9999 10.1027L12.9442 15.6084L8.00015 13.0091L3.05582 15.6084L4.00007 10.1027L0 6.20392L5.52799 5.40046L8.00015 0.39138Z" fill="#FFB745"/>
<path d="M3.23261 15.6223C3.17332 15.6223 3.11404 15.604 3.06421 15.5676C2.976 15.5035 2.93189 15.3949 2.95051 15.2876L3.83575 10.1273L0.0865632 6.47319C0.00866385 6.39701 -0.0194028 6.28331 0.0141054 6.17992C0.0478999 6.07624 0.137541 6.00064 0.245512 5.98489L5.42639 5.23195L7.74361 0.537089C7.79172 0.439142 7.89139 0.377281 8.00022 0.377281C8.10933 0.377281 8.209 0.439142 8.25682 0.537089L10.5738 5.23195L15.7549 5.98489C15.8629 6.00064 15.9522 6.07596 15.9863 6.17992C16.0198 6.28331 15.9921 6.39729 15.9139 6.47319L12.1647 10.1279L13.0496 15.2878C13.068 15.3952 13.0239 15.5038 12.9359 15.5679C12.8477 15.6327 12.7306 15.641 12.6341 15.5897L8.00022 13.1536L3.36578 15.5897C3.32397 15.6115 3.27814 15.6223 3.23261 15.6223ZM0.901928 6.46803L4.34324 9.82257C4.41055 9.88815 4.44148 9.98324 4.42544 10.076L3.61294 14.8124L7.86704 12.5763C7.95038 12.5321 8.04976 12.5321 8.13367 12.5763L12.3872 14.8124L11.575 10.076C11.559 9.98324 11.5899 9.88844 11.6572 9.82257L15.0985 6.46803L10.3429 5.77696C10.2496 5.7635 10.1691 5.70479 10.1273 5.62031L8.00022 1.31121L5.87316 5.62059C5.83135 5.70508 5.75087 5.76379 5.65751 5.77725L0.901928 6.46803Z" fill="#FFB745"/>
</g>
<defs>
<clipPath id="clip0_2026_6625">
<rect width="16" height="16" fill="white"/>
</clipPath>
</defs>
</svg>
